<?xml version="1.0" encoding="utf-8"?>
<!-- Generator: Adobe Illustrator 16.0.0, SVG Export Plug-In . SVG Version: 6.00 Build 0)  -->
<!DOCTYPE svg PUBLIC "-//W3C//DTD SVG 1.1//EN" "http://www.w3.org/Graphics/SVG/1.1/DTD/svg11.dtd">
<svg version="1.1"
	 id="svg2" xmlns:dc="http://purl.org/dc/elements/1.1/" xmlns:cc="http://creativecommons.org/ns#" xmlns:rdf="http://www.w3.org/1999/02/22-rdf-syntax-ns#" xmlns:svg="http://www.w3.org/2000/svg" xmlns:sodipodi="http://sodipodi.sourceforge.net/DTD/sodipodi-0.dtd" xmlns:inkscape="http://www.inkscape.org/namespaces/inkscape" inkscape:version="0.91 r13725" sodipodi:docname="show-apps.svg"
	 xmlns="http://www.w3.org/2000/svg" xmlns:xlink="http://www.w3.org/1999/xlink" x="0px" y="0px" width="64px" height="64px"
	 viewBox="0 0 64 64" enable-background="new 0 0 64 64" xml:space="preserve">
<sodipodi:namedview  id="namedview12" borderopacity="1" guidetolerance="10" bordercolor="#666666" pagecolor="#808080" gridtolerance="10" showgrid="true" inkscape:zoom="6.2105263" inkscape:cx="2.8769172" objecttolerance="10" inkscape:cy="31.55768" inkscape:current-layer="svg2" inkscape:window-y="0" inkscape:window-x="0" inkscape:window-height="734" inkscape:window-width="1280" inkscape:pageopacity="0" inkscape:pageshadow="2" inkscape:window-maximized="1" showguides="false">
	<sodipodi:guide  id="guide4136" orientation="0,1" position="590.23042,546.50965"></sodipodi:guide>
	<inkscape:grid  id="grid4162" type="xygrid"></inkscape:grid>
</sodipodi:namedview>
<g id="g6" transform="matrix(0,-1.4888889,1.4888889,0,5.2,58.8)">
</g>
<g id="g4208">
	<path id="path4144" fill="#6FB737" d="M20.699,22.801c-1.933,0-3.5,1.567-3.5,3.5s1.567,3.5,3.5,3.5s3.5-1.567,3.5-3.5
		S22.632,22.801,20.699,22.801z M32,22.801c-1.933,0-3.5,1.567-3.5,3.5s1.567,3.5,3.5,3.5c1.934,0,3.5-1.567,3.5-3.5
		S33.934,22.801,32,22.801z M43.301,22.801c-1.934,0-3.5,1.567-3.5,3.5s1.566,3.5,3.5,3.5s3.5-1.567,3.5-3.5
		S45.234,22.801,43.301,22.801z M20.699,34.199c-1.933,0-3.5,1.566-3.5,3.5s1.567,3.5,3.5,3.5s3.5-1.566,3.5-3.5
		S22.632,34.199,20.699,34.199z M32,34.199c-1.933,0-3.5,1.566-3.5,3.5s1.567,3.5,3.5,3.5c1.934,0,3.5-1.566,3.5-3.5
		S33.934,34.199,32,34.199z M43.301,34.199c-1.934,0-3.5,1.566-3.5,3.5s1.566,3.5,3.5,3.5s3.5-1.566,3.5-3.5
		S45.234,34.199,43.301,34.199z M32,5.2c14.801,0,26.8,11.999,26.8,26.8l0,0c0,14.801-11.999,26.8-26.8,26.8
		C17.199,58.8,5.2,46.801,5.2,32l0,0C5.2,17.199,17.199,5.2,32,5.2L32,5.2z"/>
</g>
</svg>
