<?xml version="1.0" encoding="utf-8"?>
<!-- Generator: Adobe Illustrator 16.0.0, SVG Export Plug-In . SVG Version: 6.00 Build 0)  -->
<!DOCTYPE svg PUBLIC "-//W3C//DTD SVG 1.1//EN" "http://www.w3.org/Graphics/SVG/1.1/DTD/svg11.dtd">
<svg version="1.1"
	 id="svg15239" xmlns:dc="http://purl.org/dc/elements/1.1/" xmlns:rdf="http://www.w3.org/1999/02/22-rdf-syntax-ns#" xmlns:svg="http://www.w3.org/2000/svg" xmlns:cc="http://creativecommons.org/ns#"
	 xmlns="http://www.w3.org/2000/svg" xmlns:xlink="http://www.w3.org/1999/xlink" x="0px" y="0px" width="32px" height="32px"
	 viewBox="0 0 32 32" enable-background="new 0 0 32 32" xml:space="preserve">
<g id="layer1">
	
		<linearGradient id="use7562_1_" gradientUnits="userSpaceOnUse" x1="187.542" y1="-373.3618" x2="187.542" y2="-323.4823" gradientTransform="matrix(0.507 0 0 -0.503 -79.0999 -159.5549)">
		<stop  offset="0" style="stop-color:#000000;stop-opacity:0.3217"/>
		<stop  offset="1" style="stop-color:#000000;stop-opacity:0.2783"/>
	</linearGradient>
	<path id="use7562" opacity="0.8" fill="none" stroke="url(#use7562_1_)" enable-background="new    " d="M4,6.5
		C3.567,6.505,3.5,6.717,3.5,7.135V8.5c-1.246,0-1-0.002-1,0.544c0.022,6.533,0,6.901,0,7.456c0.901,0,27-2.349,27-3.36V9.044
		c0-0.418-0.348-0.549-0.781-0.544H14.5V7.135c0-0.417-0.264-0.64-0.698-0.635H4z"/>
	
		<linearGradient id="use7564_1_" gradientUnits="userSpaceOnUse" x1="261.6758" y1="-191.0659" x2="261.6758" y2="-194.0659" gradientTransform="matrix(0.619 0 0 -0.619 -145.9897 -108.8023)">
		<stop  offset="0" style="stop-color:#F9F9F9"/>
		<stop  offset="1" style="stop-color:#D8D8D8"/>
	</linearGradient>
	<path id="use7564" fill="url(#use7564_1_)" d="M4,7v2H3v4h26V9H14V7H4z"/>
	
		<linearGradient id="use7566_1_" gradientUnits="userSpaceOnUse" x1="274.9004" y1="-187.1812" x2="274.9004" y2="-216.5935" gradientTransform="matrix(0.5438 0 0 -0.6147 -133.5006 -107.0534)">
		<stop  offset="0" style="stop-color:#FFFFFF"/>
		<stop  offset="0.1106" style="stop-color:#FFFFFF;stop-opacity:0.2353"/>
		<stop  offset="0.99" style="stop-color:#FFFFFF;stop-opacity:0.1569"/>
		<stop  offset="1" style="stop-color:#FFFFFF;stop-opacity:0.3922"/>
	</linearGradient>
	<path id="use7566" fill="none" stroke="url(#use7566_1_)" stroke-linecap="round" d="M4.5,7.5v2h-1v4h25v-4h-15v-2H4.5z"/>
	<g id="use7568" transform="translate(6.1935663e-4,-1.000001)">
		
			<linearGradient id="rect14044_1_" gradientUnits="userSpaceOnUse" x1="5747.5669" y1="-23832.8418" x2="5747.5669" y2="-24075.6973" gradientTransform="matrix(0.0511 0 0 -0.0159 -277.9528 -351.1829)">
			<stop  offset="0" style="stop-color:#000000;stop-opacity:0"/>
			<stop  offset="0.5" style="stop-color:#000000"/>
			<stop  offset="1" style="stop-color:#000000;stop-opacity:0"/>
		</linearGradient>
		
			<rect id="rect14044" x="3.647" y="28.135" opacity="0.3" fill="url(#rect14044_1_)" enable-background="new    " width="24.694" height="3.865"/>
		
			<radialGradient id="path14046_1_" cx="14937.21" cy="-23952.8477" r="117.165" gradientTransform="matrix(0.0198 0 0 -0.0159 -267.8883 -351.1829)" gradientUnits="userSpaceOnUse">
			<stop  offset="0" style="stop-color:#000000"/>
			<stop  offset="1" style="stop-color:#000000;stop-opacity:0"/>
		</radialGradient>
		<path id="path14046" opacity="0.3" fill="url(#path14046_1_)" enable-background="new    " d="M28.341,28.135V32
			c1.021,0.008,2.471-0.866,2.471-1.933C30.812,29,29.671,28.135,28.341,28.135z"/>
		
			<radialGradient id="path14048_1_" cx="-14288.8057" cy="-23952.8477" r="117.1433" gradientTransform="matrix(-0.0198 0 0 -0.0159 -279.8424 -351.1829)" gradientUnits="userSpaceOnUse">
			<stop  offset="0" style="stop-color:#000000"/>
			<stop  offset="1" style="stop-color:#000000;stop-opacity:0"/>
		</radialGradient>
		<path id="path14048" opacity="0.3" fill="url(#path14048_1_)" enable-background="new    " d="M3.647,28.135V32
			c-1.021,0.008-2.47-0.866-2.47-1.933C1.178,29,2.318,28.135,3.647,28.135z"/>
	</g>
	
		<linearGradient id="use7570_1_" gradientUnits="userSpaceOnUse" x1="192.2813" y1="-172.4224" x2="192.2813" y2="-199.0653" gradientTransform="matrix(0.6444 0 0 -0.6429 -107.9146 -98.9451)">
		<stop  offset="0" style="stop-color:#9DC370"/>
		<stop  offset="1" style="stop-color:#6DAD39"/>
	</linearGradient>
	<path id="use7570" fill="url(#use7570_1_)" d="M1.927,11.5c-0.691,0.08-0.322,0.902-0.377,1.365
		c0.08,0.299,0.598,15.719,0.598,16.248c0,0.46,0.227,0.382,0.801,0.382c8.5,0,17.898,0,26.397,0
		c0.618,0.015,0.487,0.007,0.487-0.39c0.046-0.203,0.641-16.979,0.664-17.243c0-0.279,0.058-0.362-0.306-0.362
		C21.115,11.5,11.004,11.5,1.927,11.5z"/>
	
		<linearGradient id="use7572_1_" gradientUnits="userSpaceOnUse" x1="130.9844" y1="-193.5127" x2="130.859" y2="-180.5412" gradientTransform="matrix(0.7468 0 0 -0.6555 -81.5704 -93.1551)">
		<stop  offset="0" style="stop-color:#0A0A0A;stop-opacity:0.498"/>
		<stop  offset="1" style="stop-color:#0A0A0A;stop-opacity:0"/>
	</linearGradient>
	<path id="use7572" opacity="0.4" fill="url(#use7572_1_)" enable-background="new    " d="M1.683,11h28.636
		C30.732,11,31,11.292,31,11.655l-0.673,17.712c0.01,0.46-0.136,0.643-0.617,0.633L2.454,29.988c-0.414,0-0.831-0.271-0.831-0.635
		L1,11.655C1,11.292,1.269,11,1.683,11L1.683,11z"/>
	
		<linearGradient id="use7574_1_" gradientUnits="userSpaceOnUse" x1="57.9463" y1="68.3525" x2="57.9463" y2="54.1287" gradientTransform="matrix(0.8919 0 0 -1.0539 -35.6796 84.9989)">
		<stop  offset="0" style="stop-color:#FFFFFF"/>
		<stop  offset="0.0097" style="stop-color:#FFFFFF;stop-opacity:0.2353"/>
		<stop  offset="0.99" style="stop-color:#FFFFFF;stop-opacity:0.1569"/>
		<stop  offset="1" style="stop-color:#FFFFFF;stop-opacity:0.3922"/>
	</linearGradient>
	
		<path id="use7574" opacity="0.5" fill="none" stroke="url(#use7574_1_)" stroke-width="1" stroke-linecap="round" enable-background="new    " d="
		M2.5,12.5l0.625,16h25.75l0.625-16H2.5z"/>
	<g id="g12587-31-2-6-3" transform="matrix(0.5,0,0,0.5,12.000178,17.999999)" opacity="0.3">
		<path id="path2991-3-3-2-3" fill="#FFFFFF" d="M8,0C3.582,0,0,3.582,0,8s3.582,8,8,8s8-3.582,8-8S12.418,0,8,0z M8,2
			c3.314,0,6,2.688,6,6s-2.686,6-6,6c-3.313,0-6-2.688-6-6S4.686,2,8,2z"/>
		<path id="rect3005-5-8-6-5-2" fill="#FFFFFF" d="M7,4v4H4l4,4l4-4H9V4H7z"/>
	</g>
	<g id="g12587-31-2-6" transform="matrix(0.5,0,0,0.5,12.000178,16.999999)">
		<path id="path2991-3-3-2" fill="#30542B" fill-opacity="0.5522" d="M8,0C3.582,0,0,3.582,0,8s3.582,8,8,8s8-3.582,8-8
			S12.418,0,8,0z M8,2c3.314,0,6,2.688,6,6s-2.686,6-6,6c-3.313,0-6-2.688-6-6S4.686,2,8,2z"/>
		<path id="rect3005-5-8-6-5" fill="#30542B" fill-opacity="0.5522" d="M7,4v4H4l4,4l4-4H9V4H7z"/>
	</g>
	
		<path id="path3388-5-7" opacity="0.3" fill="none" stroke="#000000" stroke-width="1" stroke-linecap="round" stroke-linejoin="round" enable-background="new    " d="
		M1.927,11.5c-0.691,0.08-0.322,0.902-0.377,1.365c0.081,0.299,0.598,15.719,0.598,16.248c0,0.46,0.227,0.382,0.801,0.382
		c8.5,0,17.898,0,26.397,0c0.619,0.015,0.488,0.007,0.488-0.39c0.045-0.203,0.641-16.979,0.663-17.243
		c0-0.279,0.058-0.362-0.306-0.362C21.115,11.5,11.003,11.5,1.927,11.5z"/>
</g>
</svg>
