<?xml version="1.0" encoding="utf-8"?>
<!-- Generator: Adobe Illustrator 16.0.0, SVG Export Plug-In . SVG Version: 6.00 Build 0)  -->
<!DOCTYPE svg PUBLIC "-//W3C//DTD SVG 1.1//EN" "http://www.w3.org/Graphics/SVG/1.1/DTD/svg11.dtd">
<svg version="1.1"
	 id="svg14582" xmlns:dc="http://purl.org/dc/elements/1.1/" xmlns:rdf="http://www.w3.org/1999/02/22-rdf-syntax-ns#" xmlns:svg="http://www.w3.org/2000/svg" xmlns:cc="http://creativecommons.org/ns#"
	 xmlns="http://www.w3.org/2000/svg" xmlns:xlink="http://www.w3.org/1999/xlink" x="0px" y="0px" width="32px" height="32px"
	 viewBox="0 0 32 32" enable-background="new 0 0 32 32" xml:space="preserve">
<g id="layer1">
	
		<linearGradient id="use7169_1_" gradientUnits="userSpaceOnUse" x1="477.7695" y1="1566.2139" x2="477.7695" y2="1516.3344" gradientTransform="matrix(0.507 0 0 0.503 -226.2395 -759.5592)">
		<stop  offset="0" style="stop-color:#000000;stop-opacity:0.3217"/>
		<stop  offset="1" style="stop-color:#000000;stop-opacity:0.2783"/>
	</linearGradient>
	<path id="use7169" opacity="0.8" fill="none" stroke="url(#use7169_1_)" enable-background="new    " d="M4,6.5
		C3.567,6.505,3.5,6.717,3.5,7.135V8.5c-1.246,0-1-0.002-1,0.544c0.022,6.533,0,6.901,0,7.456c0.901,0,27-2.349,27-3.36V9.044
		c0-0.418-0.348-0.549-0.781-0.544H14.5V7.135c0-0.417-0.264-0.64-0.698-0.635H4z"/>
	
		<linearGradient id="use7171_1_" gradientUnits="userSpaceOnUse" x1="448.4688" y1="1242.1777" x2="448.4688" y2="1245.178" gradientTransform="matrix(0.619 0 0 0.619 -261.6012 -759.441)">
		<stop  offset="0" style="stop-color:#F9F9F9"/>
		<stop  offset="1" style="stop-color:#D8D8D8"/>
	</linearGradient>
	<path id="use7171" fill="url(#use7171_1_)" d="M4,7v2H3v4h26V9H14V7H4z"/>
	
		<linearGradient id="use7173_1_" gradientUnits="userSpaceOnUse" x1="526.4443" y1="1242.5938" x2="526.4443" y2="1272.0061" gradientTransform="matrix(0.5438 0 0 0.6147 -270.2803 -755.8149)">
		<stop  offset="0" style="stop-color:#FFFFFF"/>
		<stop  offset="0.1106" style="stop-color:#FFFFFF;stop-opacity:0.2353"/>
		<stop  offset="0.99" style="stop-color:#FFFFFF;stop-opacity:0.1569"/>
		<stop  offset="1" style="stop-color:#FFFFFF;stop-opacity:0.3922"/>
	</linearGradient>
	<path id="use7173" fill="none" stroke="url(#use7173_1_)" stroke-linecap="round" d="M4.5,7.5v2h-1v4h25v-4h-15v-2H4.5z"/>
	<g id="use7175" transform="translate(6.1935663e-4,-1.000001)">
		
			<linearGradient id="rect14144_1_" gradientUnits="userSpaceOnUse" x1="11143.2861" y1="48197.7227" x2="11143.2861" y2="48440.8164" gradientTransform="matrix(0.0511 0 0 0.0159 -553.4279 -738.5841)">
			<stop  offset="0" style="stop-color:#000000;stop-opacity:0"/>
			<stop  offset="0.5" style="stop-color:#000000"/>
			<stop  offset="1" style="stop-color:#000000;stop-opacity:0"/>
		</linearGradient>
		
			<rect id="rect14144" x="3.647" y="28.135" opacity="0.3" fill="url(#rect14144_1_)" enable-background="new    " width="24.694" height="3.865"/>
		
			<radialGradient id="path14146_1_" cx="29295.0977" cy="48317.7266" r="117.1658" gradientTransform="matrix(0.0198 0 0 0.0159 -552.1746 -738.5841)" gradientUnits="userSpaceOnUse">
			<stop  offset="0" style="stop-color:#000000"/>
			<stop  offset="1" style="stop-color:#000000;stop-opacity:0"/>
		</radialGradient>
		<path id="path14146" opacity="0.3" fill="url(#path14146_1_)" enable-background="new    " d="M28.341,28.135V32
			c1.021,0.008,2.471-0.866,2.471-1.934C30.812,29,29.671,28.135,28.341,28.135z"/>
		
			<radialGradient id="path14148_1_" cx="-29209.6934" cy="48317.7266" r="117.1419" gradientTransform="matrix(-0.0198 0 0 0.0159 -575.2759 -738.5841)" gradientUnits="userSpaceOnUse">
			<stop  offset="0" style="stop-color:#000000"/>
			<stop  offset="1" style="stop-color:#000000;stop-opacity:0"/>
		</radialGradient>
		<path id="path14148" opacity="0.3" fill="url(#path14148_1_)" enable-background="new    " d="M3.647,28.135V32
			c-1.021,0.008-2.47-0.866-2.47-1.934C1.178,29,2.318,28.135,3.647,28.135z"/>
	</g>
	
		<linearGradient id="use7177_1_" gradientUnits="userSpaceOnUse" x1="360.6074" y1="1200.6875" x2="360.6074" y2="1227.3304" gradientTransform="matrix(0.6444 0 0 0.6429 -216.3758 -760.0165)">
		<stop  offset="0" style="stop-color:#9DC370"/>
		<stop  offset="1" style="stop-color:#6DAD39"/>
	</linearGradient>
	<path id="use7177" fill="url(#use7177_1_)" d="M1.927,11.5c-0.691,0.08-0.322,0.902-0.377,1.365
		c0.08,0.299,0.598,15.719,0.598,16.248c0,0.46,0.227,0.382,0.801,0.382c8.5,0,17.898,0,26.396,0
		c0.618,0.015,0.487,0.007,0.487-0.39c0.046-0.203,0.642-16.979,0.664-17.244c0-0.279,0.058-0.362-0.306-0.362
		C21.115,11.5,11.004,11.5,1.927,11.5z"/>
	
		<linearGradient id="use7179_1_" gradientUnits="userSpaceOnUse" x1="237.6113" y1="1210.4014" x2="237.4859" y2="1197.4298" gradientTransform="matrix(0.7468 0 0 0.6555 -161.206 -759.7264)">
		<stop  offset="0" style="stop-color:#0A0A0A;stop-opacity:0.498"/>
		<stop  offset="1" style="stop-color:#0A0A0A;stop-opacity:0"/>
	</linearGradient>
	<path id="use7179" opacity="0.4" fill="url(#use7179_1_)" enable-background="new    " d="M1.683,11h28.635
		C30.732,11,31,11.292,31,11.655l-0.673,17.712c0.01,0.46-0.136,0.643-0.617,0.633L2.454,29.988c-0.414,0-0.831-0.271-0.831-0.635
		L1,11.655C1,11.292,1.269,11,1.683,11L1.683,11z"/>
	
		<linearGradient id="use7181_1_" gradientUnits="userSpaceOnUse" x1="101.4355" y1="729.1357" x2="101.4355" y2="743.3596" gradientTransform="matrix(0.8919 0 0 1.0539 -74.4698 -755.4734)">
		<stop  offset="0" style="stop-color:#FFFFFF"/>
		<stop  offset="0.0097" style="stop-color:#FFFFFF;stop-opacity:0.2353"/>
		<stop  offset="0.99" style="stop-color:#FFFFFF;stop-opacity:0.1569"/>
		<stop  offset="1" style="stop-color:#FFFFFF;stop-opacity:0.3922"/>
	</linearGradient>
	<path id="use7181" opacity="0.5" fill="none" stroke="url(#use7181_1_)" stroke-linecap="round" enable-background="new    " d="
		M2.5,12.5l0.625,16h25.75l0.625-16H2.5z"/>
	<path id="rect21401-5-4-6" opacity="0.3" fill="#FFFFFF" enable-background="new    " d="M13.5,18c-0.277,0-0.5,0.223-0.5,0.5v7
		c0,0.277,0.223,0.5,0.5,0.5h5c0.277,0,0.5-0.223,0.5-0.5v-5c0-0.277-2.223-2.5-2.5-2.5H13.5z M13.75,18.5h2.75v2h2v4.75
		c0,0.139-0.111,0.25-0.25,0.25h-4.5c-0.138,0-0.25-0.111-0.25-0.25v-6.5C13.5,18.611,13.612,18.5,13.75,18.5z"/>
	<path id="rect21401-5-4" fill="#30542B" fill-opacity="0.5522" d="M13.5,17c-0.277,0-0.5,0.223-0.5,0.5v7
		c0,0.277,0.223,0.5,0.5,0.5h5c0.277,0,0.5-0.223,0.5-0.5v-5c0-0.277-2.223-2.5-2.5-2.5H13.5z M13.75,17.5h2.75v2h2v4.75
		c0,0.139-0.111,0.25-0.25,0.25h-4.5c-0.138,0-0.25-0.111-0.25-0.25v-6.5C13.5,17.611,13.612,17.5,13.75,17.5z"/>
	
		<path id="path3388-5-5" opacity="0.3" fill="none" stroke="#000000" stroke-linecap="round" stroke-linejoin="round" enable-background="new    " d="
		M1.927,11.5c-0.691,0.08-0.322,0.902-0.377,1.365c0.081,0.299,0.598,15.719,0.598,16.248c0,0.46,0.227,0.382,0.801,0.382
		c8.5,0,17.898,0,26.396,0c0.619,0.015,0.488,0.007,0.488-0.39c0.045-0.203,0.641-16.979,0.663-17.244
		c0-0.279,0.058-0.362-0.306-0.362C21.115,11.5,11.003,11.5,1.927,11.5z"/>
</g>
</svg>
