<?xml version="1.0" encoding="utf-8"?>
<!-- Generator: Adobe Illustrator 16.0.0, SVG Export Plug-In . SVG Version: 6.00 Build 0)  -->
<!DOCTYPE svg PUBLIC "-//W3C//DTD SVG 1.1//EN" "http://www.w3.org/Graphics/SVG/1.1/DTD/svg11.dtd">
<svg version="1.1"
	 id="svg15545" xmlns:dc="http://purl.org/dc/elements/1.1/" xmlns:rdf="http://www.w3.org/1999/02/22-rdf-syntax-ns#" xmlns:svg="http://www.w3.org/2000/svg" xmlns:cc="http://creativecommons.org/ns#"
	 xmlns="http://www.w3.org/2000/svg" xmlns:xlink="http://www.w3.org/1999/xlink" x="0px" y="0px" width="32px" height="32px"
	 viewBox="0 0 32 32" enable-background="new 0 0 32 32" xml:space="preserve">
<g id="layer1">
	
		<linearGradient id="use7637_1_" gradientUnits="userSpaceOnUse" x1="187.543" y1="-373.3618" x2="187.543" y2="-323.4823" gradientTransform="matrix(0.507 0 0 -0.503 -79.1004 -159.5549)">
		<stop  offset="0" style="stop-color:#000000;stop-opacity:0.3217"/>
		<stop  offset="1" style="stop-color:#000000;stop-opacity:0.2783"/>
	</linearGradient>
	<path id="use7637" opacity="0.8" fill="none" stroke="url(#use7637_1_)" enable-background="new    " d="M4,6.5
		C3.567,6.505,3.5,6.717,3.5,7.135V8.5c-1.246,0-1-0.002-1,0.544c0.022,6.533,0,6.901,0,7.456c0.901,0,27-2.349,27-3.36V9.044
		c0-0.418-0.348-0.549-0.781-0.544H14.5V7.135c0-0.417-0.264-0.64-0.697-0.635H4z"/>
	
		<linearGradient id="use7639_1_" gradientUnits="userSpaceOnUse" x1="261.6748" y1="-191.0659" x2="261.6748" y2="-194.0659" gradientTransform="matrix(0.619 0 0 -0.619 -145.9897 -108.8023)">
		<stop  offset="0" style="stop-color:#F9F9F9"/>
		<stop  offset="1" style="stop-color:#D8D8D8"/>
	</linearGradient>
	<path id="use7639" fill="url(#use7639_1_)" d="M4,7v2H3v4h26V9H14V7H4z"/>
	
		<linearGradient id="use7641_1_" gradientUnits="userSpaceOnUse" x1="274.9004" y1="-187.1812" x2="274.9004" y2="-216.5935" gradientTransform="matrix(0.5438 0 0 -0.6147 -133.5011 -107.0534)">
		<stop  offset="0" style="stop-color:#FFFFFF"/>
		<stop  offset="0.1106" style="stop-color:#FFFFFF;stop-opacity:0.2353"/>
		<stop  offset="0.99" style="stop-color:#FFFFFF;stop-opacity:0.1569"/>
		<stop  offset="1" style="stop-color:#FFFFFF;stop-opacity:0.3922"/>
	</linearGradient>
	<path id="use7641" fill="none" stroke="url(#use7641_1_)" stroke-linecap="round" d="M4.5,7.5v2h-1v4h25v-4h-15v-2H4.5z"/>
	<g id="use7643" transform="translate(1.7935663e-4,-1.000001)">
		
			<linearGradient id="rect14258_1_" gradientUnits="userSpaceOnUse" x1="5747.5771" y1="-23832.8418" x2="5747.5771" y2="-24075.6973" gradientTransform="matrix(0.0511 0 0 -0.0159 -277.9529 -351.1829)">
			<stop  offset="0" style="stop-color:#000000;stop-opacity:0"/>
			<stop  offset="0.5" style="stop-color:#000000"/>
			<stop  offset="1" style="stop-color:#000000;stop-opacity:0"/>
		</linearGradient>
		
			<rect id="rect14258" x="3.647" y="28.135" opacity="0.3" fill="url(#rect14258_1_)" enable-background="new    " width="24.694" height="3.865"/>
		
			<radialGradient id="path14260_1_" cx="14937.2324" cy="-23952.8477" r="117.1426" gradientTransform="matrix(0.0198 0 0 -0.0159 -267.8884 -351.1829)" gradientUnits="userSpaceOnUse">
			<stop  offset="0" style="stop-color:#000000"/>
			<stop  offset="1" style="stop-color:#000000;stop-opacity:0"/>
		</radialGradient>
		<path id="path14260" opacity="0.3" fill="url(#path14260_1_)" enable-background="new    " d="M28.342,28.135V32
			c1.021,0.008,2.47-0.866,2.47-1.933C30.811,29,29.672,28.135,28.342,28.135z"/>
		
			<radialGradient id="path14262_1_" cx="-14288.8037" cy="-23952.8477" r="117.1431" gradientTransform="matrix(-0.0198 0 0 -0.0159 -279.8425 -351.1829)" gradientUnits="userSpaceOnUse">
			<stop  offset="0" style="stop-color:#000000"/>
			<stop  offset="1" style="stop-color:#000000;stop-opacity:0"/>
		</radialGradient>
		<path id="path14262" opacity="0.3" fill="url(#path14262_1_)" enable-background="new    " d="M3.647,28.135V32
			c-1.021,0.008-2.47-0.866-2.47-1.933C1.178,29,2.318,28.135,3.647,28.135z"/>
	</g>
	
		<linearGradient id="use7645_1_" gradientUnits="userSpaceOnUse" x1="192.2813" y1="-172.4224" x2="192.2813" y2="-199.0653" gradientTransform="matrix(0.6444 0 0 -0.6429 -107.9151 -98.9451)">
		<stop  offset="0" style="stop-color:#9DC370"/>
		<stop  offset="1" style="stop-color:#6DAD39"/>
	</linearGradient>
	<path id="use7645" fill="url(#use7645_1_)" d="M1.927,11.5c-0.691,0.08-0.322,0.902-0.377,1.365
		c0.081,0.299,0.598,15.719,0.598,16.248c0,0.46,0.227,0.382,0.801,0.382c8.5,0,17.898,0,26.397,0
		c0.619,0.015,0.488,0.007,0.488-0.39c0.045-0.203,0.641-16.979,0.663-17.243c0-0.279,0.058-0.362-0.306-0.362
		C21.115,11.5,11.003,11.5,1.927,11.5z"/>
	
		<linearGradient id="use7647_1_" gradientUnits="userSpaceOnUse" x1="130.9854" y1="-193.5127" x2="130.86" y2="-180.5412" gradientTransform="matrix(0.7468 0 0 -0.6555 -81.5704 -93.1551)">
		<stop  offset="0" style="stop-color:#0A0A0A;stop-opacity:0.498"/>
		<stop  offset="1" style="stop-color:#0A0A0A;stop-opacity:0"/>
	</linearGradient>
	<path id="use7647" opacity="0.4" fill="url(#use7647_1_)" enable-background="new    " d="M1.682,11h28.636
		C30.732,11,31,11.292,31,11.655l-0.674,17.712c0.011,0.46-0.136,0.643-0.617,0.633L2.454,29.988c-0.414,0-0.831-0.271-0.831-0.635
		L1,11.655C1,11.292,1.268,11,1.682,11L1.682,11z"/>
	
		<linearGradient id="use7649_1_" gradientUnits="userSpaceOnUse" x1="57.9463" y1="68.3525" x2="57.9463" y2="54.1287" gradientTransform="matrix(0.8919 0 0 -1.0539 -35.6801 84.9989)">
		<stop  offset="0" style="stop-color:#FFFFFF"/>
		<stop  offset="0.0097" style="stop-color:#FFFFFF;stop-opacity:0.2353"/>
		<stop  offset="0.99" style="stop-color:#FFFFFF;stop-opacity:0.1569"/>
		<stop  offset="1" style="stop-color:#FFFFFF;stop-opacity:0.3922"/>
	</linearGradient>
	
		<path id="use7649" opacity="0.5" fill="none" stroke="url(#use7649_1_)" stroke-width="1" stroke-linecap="round" enable-background="new    " d="
		M2.5,12.5l0.625,16h25.75l0.625-16H2.5z"/>
	<g id="layer1-9-4-7-4" transform="matrix(0.49974347,0,0,0.49974347,11.497349,17.999998)" opacity="0.3">
		<path id="rect2996-4-0-5" fill="#FFFFFF" d="M13.375,0L6,1.907C5.446,2.056,5,2.646,5,3.218v9.095
			c-0.562-0.295-1.283-0.412-2.031-0.219c-1.349,0.35-2.195,1.483-1.906,2.531s1.619,1.634,2.968,1.282
			c1.078-0.281,1.819-1.071,1.938-1.907L6,5.405L13,3.531v6.783c-0.563-0.295-1.284-0.414-2.032-0.219
			c-1.349,0.35-2.194,1.483-1.905,2.529c0.289,1.047,1.62,1.634,2.968,1.282c1.077-0.279,1.819-1.071,1.938-1.905l0.031-11.187
			C14.001,0.383,13.735,0.061,13.375,0z"/>
	</g>
	<g id="layer1-9-4-7" transform="matrix(0.49974347,0,0,0.49974347,11.497349,16.999998)">
		<path id="rect2996-4-0" fill="#30542B" fill-opacity="0.5522" d="M13.375,0L6,1.907C5.446,2.056,5,2.646,5,3.218v9.095
			c-0.562-0.295-1.283-0.412-2.031-0.219c-1.349,0.35-2.195,1.483-1.906,2.531s1.619,1.634,2.968,1.282
			c1.078-0.281,1.819-1.071,1.938-1.907L6,5.405L13,3.531v6.783c-0.563-0.295-1.284-0.414-2.032-0.219
			c-1.349,0.35-2.194,1.483-1.905,2.529c0.289,1.047,1.62,1.634,2.968,1.282c1.077-0.279,1.819-1.071,1.938-1.905l0.031-11.187
			C14.001,0.383,13.735,0.061,13.375,0z"/>
	</g>
	
		<path id="path3388-5-6" opacity="0.3" fill="none" stroke="#000000" stroke-width="1" stroke-linecap="round" stroke-linejoin="round" enable-background="new    " d="
		M1.927,11.5c-0.691,0.08-0.322,0.902-0.377,1.365c0.081,0.299,0.598,15.719,0.598,16.248c0,0.46,0.227,0.382,0.801,0.382
		c8.5,0,17.898,0,26.397,0c0.619,0.015,0.488,0.007,0.488-0.39c0.045-0.203,0.641-16.979,0.663-17.243
		c0-0.279,0.058-0.362-0.306-0.362C21.115,11.5,11.003,11.5,1.927,11.5z"/>
</g>
</svg>
