<?xml version="1.0" encoding="utf-8"?>
<!-- Generator: Adobe Illustrator 16.0.0, SVG Export Plug-In . SVG Version: 6.00 Build 0)  -->
<!DOCTYPE svg PUBLIC "-//W3C//DTD SVG 1.1//EN" "http://www.w3.org/Graphics/SVG/1.1/DTD/svg11.dtd">
<svg version="1.1"
	 id="svg18157" xmlns:dc="http://purl.org/dc/elements/1.1/" xmlns:rdf="http://www.w3.org/1999/02/22-rdf-syntax-ns#" xmlns:svg="http://www.w3.org/2000/svg" xmlns:cc="http://creativecommons.org/ns#"
	 xmlns="http://www.w3.org/2000/svg" xmlns:xlink="http://www.w3.org/1999/xlink" x="0px" y="0px" width="48px" height="48px"
	 viewBox="0 0 48 48" enable-background="new 0 0 48 48" xml:space="preserve">
<g id="layer1">
	
		<linearGradient id="rect4251-0-0-61_1_" gradientUnits="userSpaceOnUse" x1="-35.5269" y1="-78.5947" x2="-35.5269" y2="-28.7141" gradientTransform="matrix(0.8075 0 0 -0.8337 52.688 -20.9805)">
		<stop  offset="0" style="stop-color:#000000;stop-opacity:0.3217"/>
		<stop  offset="1" style="stop-color:#000000;stop-opacity:0.2783"/>
	</linearGradient>
	<path id="rect4251-0-0-61" opacity="0.8" fill="none" stroke="url(#rect4251-0-0-61_1_)" enable-background="new    " d="M5.5,8.5
		c-0.554,0-1,0.446-1,1v2h-1c-0.554,0-1,0.446-1,1v6c0,0.554,0.446,1,1,1h41c0.555,0,1-0.446,1-1v-6c0-0.554-0.445-1-1-1h-23v-2
		c0-0.554-0.446-1-1-1H5.5z"/>
	
		<linearGradient id="rect4251-3-2_1_" gradientUnits="userSpaceOnUse" x1="74.9404" y1="36" x2="74.9404" y2="33" gradientTransform="matrix(1 0 0 -1 -50.9409 49)">
		<stop  offset="0" style="stop-color:#F9F9F9"/>
		<stop  offset="1" style="stop-color:#D8D8D8"/>
	</linearGradient>
	<path id="rect4251-3-2" fill="url(#rect4251-3-2_1_)" d="M5.5,9C5.223,9,5,9.223,5,9.5V12H3.5C3.223,12,3,12.223,3,12.5v6
		C3,18.777,3.223,19,3.5,19h41c0.277,0,0.5-0.223,0.5-0.5v-6c0-0.277-0.223-0.5-0.5-0.5H21V9.5C21,9.223,20.777,9,20.5,9H5.5z"/>
	
		<linearGradient id="rect4251-9-21-7_1_" gradientUnits="userSpaceOnUse" x1="57.5313" y1="65.127" x2="57.5313" y2="35.234" gradientTransform="matrix(0.8919 0 0 -1.058 -27.3123 78.7547)">
		<stop  offset="0" style="stop-color:#FFFFFF"/>
		<stop  offset="0.074" style="stop-color:#FFFFFF;stop-opacity:0.2353"/>
		<stop  offset="0.99" style="stop-color:#FFFFFF;stop-opacity:0.1569"/>
		<stop  offset="1" style="stop-color:#FFFFFF;stop-opacity:0.3922"/>
	</linearGradient>
	<path id="rect4251-9-21-7" fill="none" stroke="url(#rect4251-9-21-7_1_)" stroke-linecap="round" stroke-linejoin="round" d="
		M5.5,9.5v3h-2v7h41v-7h-24v-3H5.5z"/>
	
		<linearGradient id="rect4173-8-8_1_" gradientUnits="userSpaceOnUse" x1="3625.7754" y1="-14983.041" x2="3625.7754" y2="-15225.8984" gradientTransform="matrix(0.0794 0 0 -0.0247 -263.8454 -329.1696)">
		<stop  offset="0" style="stop-color:#000000;stop-opacity:0"/>
		<stop  offset="0.5" style="stop-color:#000000"/>
		<stop  offset="1" style="stop-color:#000000;stop-opacity:0"/>
	</linearGradient>
	
		<rect id="rect4173-8-8" x="4.833" y="41" opacity="0.3" fill="url(#rect4173-8-8_1_)" enable-background="new    " width="38.333" height="6"/>
	
		<radialGradient id="path5058-9-0_1_" cx="9466.5313" cy="-15103.0547" r="117.1498" gradientTransform="matrix(0.0308 0 0 -0.0247 -248.222 -329.1696)" gradientUnits="userSpaceOnUse">
		<stop  offset="0" style="stop-color:#000000"/>
		<stop  offset="1" style="stop-color:#000000;stop-opacity:0"/>
	</radialGradient>
	<path id="path5058-9-0" opacity="0.3" fill="url(#path5058-9-0_1_)" enable-background="new    " d="M43.166,41v6
		C44.752,47.012,47,45.656,47,44S45.23,41,43.166,41z"/>
	
		<radialGradient id="path5018-6-6_1_" cx="-8818.1191" cy="-15103.0547" r="117.143" gradientTransform="matrix(-0.0308 0 0 -0.0247 -266.778 -329.1696)" gradientUnits="userSpaceOnUse">
		<stop  offset="0" style="stop-color:#000000"/>
		<stop  offset="1" style="stop-color:#000000;stop-opacity:0"/>
	</radialGradient>
	<path id="path5018-6-6" opacity="0.3" fill="url(#path5018-6-6_1_)" enable-background="new    " d="M4.833,41v6
		C3.248,47.012,1,45.656,1,44S2.77,41,4.833,41z"/>
	
		<linearGradient id="path3388-7-1_1_" gradientUnits="userSpaceOnUse" x1="24.0005" y1="44.6924" x2="24.0005" y2="18.049" gradientTransform="matrix(1 0 0 -1.0357 0 62.4287)">
		<stop  offset="0" style="stop-color:#A3CB72"/>
		<stop  offset="1" style="stop-color:#6FB737"/>
	</linearGradient>
	<path id="path3388-7-1" fill="url(#path3388-7-1_1_)" d="M2.163,15.5c-1.072,0.128-0.5,1.454-0.585,2.2
		c0.125,0.481,0.927,26.177,0.927,26.177c0,0.74,0.352,0.615,1.243,0.615c13.188,0,27.772,0,40.961,0
		c0.96,0.023,0.758,0.012,0.758-0.627c0,0,0.992-27.355,1.027-27.782c0-0.449,0.091-0.583-0.473-0.583
		C31.938,15.5,16.247,15.5,2.163,15.5z"/>
	
		<linearGradient id="path6127-1-4_1_" gradientUnits="userSpaceOnUse" x1="-11.2573" y1="-1.4517" x2="-11.3827" y2="11.5196" gradientTransform="matrix(1.1447 0 0 -0.9978 37.2646 49.154)">
		<stop  offset="0" style="stop-color:#0A0A0A;stop-opacity:0.498"/>
		<stop  offset="1" style="stop-color:#0A0A0A;stop-opacity:0"/>
	</linearGradient>
	<path id="path6127-1-4" opacity="0.4" fill="url(#path6127-1-4_1_)" enable-background="new    " d="M2.058,16.065l43.897,0
		c0.634,0,1.045,0.445,1.045,0.998l-1.033,26.96c0.016,0.699-0.209,0.977-0.945,0.962L3.241,44.968
		c-0.634,0-1.273-0.413-1.273-0.966L1.013,17.063C1.013,16.51,1.424,16.065,2.058,16.065z"/>
	
		<linearGradient id="path4587-3-5_1_" gradientUnits="userSpaceOnUse" x1="57.4961" y1="70.4063" x2="57.4961" y2="46.7774" gradientTransform="matrix(0.8919 0 0 -1.0987 -27.2903 94.3712)">
		<stop  offset="0" style="stop-color:#FFFFFF"/>
		<stop  offset="0.0097" style="stop-color:#FFFFFF;stop-opacity:0.2353"/>
		<stop  offset="0.99" style="stop-color:#FFFFFF;stop-opacity:0.1569"/>
		<stop  offset="1" style="stop-color:#FFFFFF;stop-opacity:0.3922"/>
	</linearGradient>
	
		<path id="path4587-3-5" opacity="0.5" fill="none" stroke="url(#path4587-3-5_1_)" stroke-width="0.9813" stroke-linecap="round" enable-background="new    " d="
		M2.522,16.5c0.017,0.183,0.022,0.538,0.031,0.909c0.023,0.09,0.026,0.062,0.031,0.097c0.011,0.069,0.027,0.144,0.031,0.195
		c0.006,0.078-0.006,0.18,0,0.292c0.014,0.225,0.045,0.531,0.063,0.909c0.035,0.756,0.078,1.774,0.125,3.018
		c0.094,2.487,0.203,5.769,0.313,9.021c0.212,6.309,0.395,12.188,0.406,12.558c0.123,0.004,0.071,0,0.25,0H44.49
		c0.014-0.342,0.254-6.674,0.5-13.401c0.127-3.454,0.246-6.942,0.344-9.573c0.05-1.315,0.095-2.421,0.125-3.212
		c0.014-0.341,0.023-0.595,0.031-0.812H2.522z"/>
	
		<path id="path3388-7-1-7" opacity="0.3" fill="none" stroke="#000000" stroke-linecap="round" stroke-linejoin="round" enable-background="new    " d="
		M2.163,15.5c-1.072,0.128-0.5,1.454-0.585,2.2c0.125,0.481,0.927,26.177,0.927,26.177c0,0.74,0.352,0.615,1.243,0.615
		c13.188,0,27.772,0,40.961,0c0.96,0.023,0.758,0.012,0.758-0.627c0,0,0.992-27.355,1.027-27.782c0-0.449,0.091-0.583-0.473-0.583
		C31.938,15.5,16.247,15.5,2.163,15.5z"/>
</g>
</svg>
