<?xml version="1.0" encoding="utf-8"?>
<!-- Generator: Adobe Illustrator 16.0.0, SVG Export Plug-In . SVG Version: 6.00 Build 0)  -->
<!DOCTYPE svg PUBLIC "-//W3C//DTD SVG 1.1//EN" "http://www.w3.org/Graphics/SVG/1.1/DTD/svg11.dtd">
<svg version="1.1"
	 id="svg19019" xmlns:dc="http://purl.org/dc/elements/1.1/" xmlns:rdf="http://www.w3.org/1999/02/22-rdf-syntax-ns#" xmlns:svg="http://www.w3.org/2000/svg" xmlns:cc="http://creativecommons.org/ns#"
	 xmlns="http://www.w3.org/2000/svg" xmlns:xlink="http://www.w3.org/1999/xlink" x="0px" y="0px" width="48px" height="48px"
	 viewBox="0 0 48 48" enable-background="new 0 0 48 48" xml:space="preserve">
<g id="layer1" transform="translate(0,16)">
	
		<linearGradient id="rect4251-0-0-1-1-9_1_" gradientUnits="userSpaceOnUse" x1="-27.0815" y1="-71.7285" x2="-27.0815" y2="-21.8479" gradientTransform="matrix(0.8075 0 0 -0.8337 45.8676 -31.2559)">
		<stop  offset="0" style="stop-color:#000000;stop-opacity:0.3217"/>
		<stop  offset="1" style="stop-color:#000000;stop-opacity:0.2783"/>
	</linearGradient>
	<path id="rect4251-0-0-1-1-9" opacity="0.8" fill="none" stroke="url(#rect4251-0-0-1-1-9_1_)" enable-background="new    " d="
		M5.5-7.5c-0.554,0-1,0.446-1,1v2h-1c-0.554,0-1,0.446-1,1v6c0,0.554,0.446,1,1,1h41c0.555,0,1-0.446,1-1v-6c0-0.554-0.445-1-1-1
		h-23v-2c0-0.554-0.446-1-1-1H5.5z"/>
	
		<linearGradient id="rect4251-4-7-62-4_1_" gradientUnits="userSpaceOnUse" x1="83.3008" y1="43.0547" x2="83.3008" y2="40.0547" gradientTransform="matrix(1 0 0 -1 -59.3008 40.0547)">
		<stop  offset="0" style="stop-color:#F9F9F9"/>
		<stop  offset="1" style="stop-color:#D8D8D8"/>
	</linearGradient>
	<path id="rect4251-4-7-62-4" fill="url(#rect4251-4-7-62-4_1_)" d="M5.5-7C5.223-7,5-6.777,5-6.5V-4H3.5C3.223-4,3-3.777,3-3.5v6
		C3,2.777,3.223,3,3.5,3h41C44.777,3,45,2.777,45,2.5v-6C45-3.777,44.777-4,44.5-4H21v-2.5C21-6.777,20.777-7,20.5-7H5.5z"/>
	
		<linearGradient id="rect4251-9-9-0-05-2_1_" gradientUnits="userSpaceOnUse" x1="65.9355" y1="72.2334" x2="65.9355" y2="42.3404" gradientTransform="matrix(0.8919 0 0 -1.058 -34.8074 70.2735)">
		<stop  offset="0" style="stop-color:#FFFFFF"/>
		<stop  offset="0.074" style="stop-color:#FFFFFF;stop-opacity:0.2353"/>
		<stop  offset="0.99" style="stop-color:#FFFFFF;stop-opacity:0.1569"/>
		<stop  offset="1" style="stop-color:#FFFFFF;stop-opacity:0.3922"/>
	</linearGradient>
	
		<path id="rect4251-9-9-0-05-2" fill="none" stroke="url(#rect4251-9-9-0-05-2_1_)" stroke-linecap="round" stroke-linejoin="round" d="
		M5.5-6.5v3h-2v7h41v-7h-24v-3H5.5z"/>
	
		<linearGradient id="rect4173-6-7-7-3_1_" gradientUnits="userSpaceOnUse" x1="3638.3145" y1="-15013.3223" x2="3638.3145" y2="-15256.1797" gradientTransform="matrix(0.0794 0 0 -0.0247 -264.8405 -345.9174)">
		<stop  offset="0" style="stop-color:#000000;stop-opacity:0"/>
		<stop  offset="0.5" style="stop-color:#000000"/>
		<stop  offset="1" style="stop-color:#000000;stop-opacity:0"/>
	</linearGradient>
	
		<rect id="rect4173-6-7-7-3" x="4.833" y="25" opacity="0.3" fill="url(#rect4173-6-7-7-3_1_)" enable-background="new    " width="38.333" height="6"/>
	
		<radialGradient id="path5058-7-9-1-3_1_" cx="9486.2188" cy="-15133.3174" r="117.1498" gradientTransform="matrix(0.0308 0 0 -0.0247 -248.8284 -345.9174)" gradientUnits="userSpaceOnUse">
		<stop  offset="0" style="stop-color:#000000"/>
		<stop  offset="1" style="stop-color:#000000;stop-opacity:0"/>
	</radialGradient>
	<path id="path5058-7-9-1-3" opacity="0.3" fill="url(#path5058-7-9-1-3_1_)" enable-background="new    " d="M43.166,25v6
		C44.752,31.012,47,29.656,47,28S45.23,25,43.166,25z"/>
	
		<radialGradient id="path5018-8-1-1-6_1_" cx="-8821.8066" cy="-15133.3174" r="117.143" gradientTransform="matrix(-0.0308 0 0 -0.0247 -266.8913 -345.9174)" gradientUnits="userSpaceOnUse">
		<stop  offset="0" style="stop-color:#000000"/>
		<stop  offset="1" style="stop-color:#000000;stop-opacity:0"/>
	</radialGradient>
	<path id="path5018-8-1-1-6" opacity="0.3" fill="url(#path5018-8-1-1-6_1_)" enable-background="new    " d="M4.833,25v6
		C3.248,31.012,1,29.656,1,28S2.77,25,4.833,25z"/>
	
		<linearGradient id="path3388-1-43-0-7_1_" gradientUnits="userSpaceOnUse" x1="32.3594" y1="51.7803" x2="32.3594" y2="25.1364" gradientTransform="matrix(1 0 0 -1.0357 -8.3599 53.7694)">
		<stop  offset="0" style="stop-color:#9DC370"/>
		<stop  offset="1" style="stop-color:#6DAD39"/>
	</linearGradient>
	<path id="path3388-1-43-0-7" fill="url(#path3388-1-43-0-7_1_)" d="M2.163-0.5c-1.072,0.128-0.5,1.454-0.585,2.2
		c0.125,0.481,0.927,26.177,0.927,26.177c0,0.74,0.352,0.615,1.243,0.615c13.188,0,27.772,0,40.961,0
		c0.96,0.023,0.758,0.012,0.758-0.627c0,0,0.992-27.355,1.027-27.782c0-0.449,0.091-0.583-0.473-0.583
		C31.938-0.5,16.247-0.5,2.163-0.5z"/>
	
		<linearGradient id="path6127-7-1-6-4_1_" gradientUnits="userSpaceOnUse" x1="-2.9434" y1="5.6006" x2="-3.0687" y2="18.5719" gradientTransform="matrix(1.1447 0 0 -0.9978 27.747 40.1899)">
		<stop  offset="0" style="stop-color:#0A0A0A;stop-opacity:0.498"/>
		<stop  offset="1" style="stop-color:#0A0A0A;stop-opacity:0"/>
	</linearGradient>
	<path id="path6127-7-1-6-4" opacity="0.4" fill="url(#path6127-7-1-6-4_1_)" enable-background="new    " d="M2.058,0.065l43.897,0
		C46.589,0.065,47,0.51,47,1.063l-1.033,26.96c0.016,0.699-0.209,0.977-0.945,0.962L3.241,28.968c-0.634,0-1.273-0.413-1.273-0.966
		L1.013,1.063C1.013,0.51,1.424,0.065,2.058,0.065z"/>
	
		<linearGradient id="path4587-4-6-3-0_1_" gradientUnits="userSpaceOnUse" x1="65.9004" y1="77.5449" x2="65.9004" y2="53.9161" gradientTransform="matrix(0.8919 0 0 -1.0987 -34.8074 86.2165)">
		<stop  offset="0" style="stop-color:#FFFFFF"/>
		<stop  offset="0.0097" style="stop-color:#FFFFFF;stop-opacity:0.2353"/>
		<stop  offset="0.99" style="stop-color:#FFFFFF;stop-opacity:0.1569"/>
		<stop  offset="1" style="stop-color:#FFFFFF;stop-opacity:0.3922"/>
	</linearGradient>
	
		<path id="path4587-4-6-3-0" opacity="0.5" fill="none" stroke="url(#path4587-4-6-3-0_1_)" stroke-width="0.9813" stroke-linecap="round" enable-background="new    " d="
		M2.5,0.501C2.517,0.685,2.522,1.04,2.531,1.41C2.554,1.5,2.557,1.472,2.563,1.508c0.011,0.069,0.027,0.144,0.031,0.194
		c0.006,0.078-0.007,0.18,0,0.292c0.013,0.225,0.045,0.531,0.063,0.909C2.69,3.659,2.734,4.677,2.781,5.921
		c0.094,2.486,0.203,5.769,0.313,9.021C3.306,21.25,3.488,27.13,3.5,27.5c0.123,0.004,0.071,0,0.25,0h40.719
		c0.012-0.342,0.254-6.674,0.5-13.402c0.127-3.453,0.246-6.941,0.344-9.572c0.049-1.315,0.094-2.421,0.125-3.212
		c0.014-0.341,0.022-0.595,0.031-0.812H2.5z"/>
	<g id="g12587-3-4-1" transform="translate(15.984372,6.9999995)" opacity="0.3">
		<path id="path2991-1-1-3" fill="#FFFFFF" d="M8,0C3.582,0,0,3.582,0,8s3.582,8,8,8c4.418,0,8-3.582,8-8S12.418,0,8,0z M8,2
			c3.313,0,6,2.687,6,6s-2.687,6-6,6s-6-2.687-6-6S4.687,2,8,2z"/>
		<path id="rect3005-5-1-9-2" fill="#FFFFFF" d="M7,4v4H4l4,4l4-4H9V4H7z"/>
	</g>
	<g id="g12587-31-2" transform="translate(15.984372,5.9999995)">
		<path id="path2991-3-3" fill="#30542B" fill-opacity="0.5522" d="M8,0C3.582,0,0,3.582,0,8s3.582,8,8,8c4.418,0,8-3.582,8-8
			S12.418,0,8,0z M8,2c3.313,0,6,2.687,6,6s-2.687,6-6,6s-6-2.687-6-6S4.687,2,8,2z"/>
		<path id="rect3005-5-8-6" fill="#30542B" fill-opacity="0.5522" d="M7,4v4H4l4,4l4-4H9V4H7z"/>
	</g>
	
		<path id="path3388-1-43-0-7-64" opacity="0.3" fill="none" stroke="#000000" stroke-linecap="round" stroke-linejoin="round" enable-background="new    " d="
		M2.163-0.5c-1.072,0.128-0.5,1.454-0.585,2.2c0.125,0.481,0.927,26.177,0.927,26.177c0,0.74,0.352,0.615,1.243,0.615
		c13.188,0,27.772,0,40.961,0c0.96,0.023,0.758,0.012,0.758-0.627c0,0,0.992-27.355,1.027-27.782c0-0.449,0.091-0.583-0.473-0.583
		C31.938-0.5,16.247-0.5,2.163-0.5z"/>
</g>
</svg>
