<?xml version="1.0" encoding="utf-8"?>
<!-- Generator: Adobe Illustrator 16.0.0, SVG Export Plug-In . SVG Version: 6.00 Build 0)  -->
<!DOCTYPE svg PUBLIC "-//W3C//DTD SVG 1.1//EN" "http://www.w3.org/Graphics/SVG/1.1/DTD/svg11.dtd">
<svg version="1.1"
	 id="svg20379" xmlns:dc="http://purl.org/dc/elements/1.1/" xmlns:rdf="http://www.w3.org/1999/02/22-rdf-syntax-ns#" xmlns:svg="http://www.w3.org/2000/svg" xmlns:cc="http://creativecommons.org/ns#"
	 xmlns="http://www.w3.org/2000/svg" xmlns:xlink="http://www.w3.org/1999/xlink" x="0px" y="0px" width="48px" height="48px"
	 viewBox="0 0 48 48" enable-background="new 0 0 48 48" xml:space="preserve">
<g id="layer1">
	
		<linearGradient id="rect4251-0-0-1-1-9-5-2-3-2_1_" gradientUnits="userSpaceOnUse" x1="-27.0811" y1="-55.7285" x2="-27.0811" y2="-5.8479" gradientTransform="matrix(0.8075 0 0 -0.8337 45.8676 -1.916)">
		<stop  offset="0" style="stop-color:#000000;stop-opacity:0.3217"/>
		<stop  offset="1" style="stop-color:#000000;stop-opacity:0.2783"/>
	</linearGradient>
	
		<path id="rect4251-0-0-1-1-9-5-2-3-2" opacity="0.8" fill="none" stroke="url(#rect4251-0-0-1-1-9-5-2-3-2_1_)" enable-background="new    " d="
		M5.5,8.5c-0.554,0-1,0.446-1,1v2h-1c-0.554,0-1,0.446-1,1v6c0,0.554,0.446,1,1,1h41c0.555,0,1-0.446,1-1v-6c0-0.554-0.445-1-1-1
		h-23v-2c0-0.554-0.446-1-1-1H5.5z"/>
	
		<linearGradient id="rect4251-4-7-62-4-4-9-2-5_1_" gradientUnits="userSpaceOnUse" x1="83.3008" y1="59.0547" x2="83.3008" y2="56.0547" gradientTransform="matrix(1 0 0 -1 -59.3008 72.0547)">
		<stop  offset="0" style="stop-color:#F9F9F9"/>
		<stop  offset="1" style="stop-color:#D8D8D8"/>
	</linearGradient>
	<path id="rect4251-4-7-62-4-4-9-2-5" fill="url(#rect4251-4-7-62-4-4-9-2-5_1_)" d="M5.5,9C5.223,9,5,9.223,5,9.5V12H3.5
		C3.223,12,3,12.223,3,12.5v6C3,18.777,3.223,19,3.5,19h41c0.277,0,0.5-0.223,0.5-0.5v-6c0-0.277-0.223-0.5-0.5-0.5H21V9.5
		C21,9.223,20.777,9,20.5,9H5.5z"/>
	
		<linearGradient id="rect4251-9-9-0-05-2-0-5-9-2_1_" gradientUnits="userSpaceOnUse" x1="65.9355" y1="88.2334" x2="65.9355" y2="58.3404" gradientTransform="matrix(0.8919 0 0 -1.058 -34.8074 103.202)">
		<stop  offset="0" style="stop-color:#FFFFFF"/>
		<stop  offset="0.074" style="stop-color:#FFFFFF;stop-opacity:0.2353"/>
		<stop  offset="0.99" style="stop-color:#FFFFFF;stop-opacity:0.1569"/>
		<stop  offset="1" style="stop-color:#FFFFFF;stop-opacity:0.3922"/>
	</linearGradient>
	
		<path id="rect4251-9-9-0-05-2-0-5-9-2" fill="none" stroke="url(#rect4251-9-9-0-05-2-0-5-9-2_1_)" stroke-linecap="round" stroke-linejoin="round" d="
		M5.5,9.5v3h-2v7h41v-7h-24v-3H5.5z"/>
	
		<linearGradient id="rect4173-6-7-7-3-5-1-4-5_1_" gradientUnits="userSpaceOnUse" x1="3638.3145" y1="-14997.3223" x2="3638.3145" y2="-15240.1797" gradientTransform="matrix(0.0794 0 0 -0.0247 -264.8405 -329.5221)">
		<stop  offset="0" style="stop-color:#000000;stop-opacity:0"/>
		<stop  offset="0.5" style="stop-color:#000000"/>
		<stop  offset="1" style="stop-color:#000000;stop-opacity:0"/>
	</linearGradient>
	
		<rect id="rect4173-6-7-7-3-5-1-4-5" x="4.833" y="41" opacity="0.3" fill="url(#rect4173-6-7-7-3-5-1-4-5_1_)" enable-background="new    " width="38.333" height="6"/>
	
		<radialGradient id="path5058-7-9-1-3-0-3-4-8_1_" cx="9486.2188" cy="-15117.3174" r="117.1498" gradientTransform="matrix(0.0308 0 0 -0.0247 -248.8284 -329.5221)" gradientUnits="userSpaceOnUse">
		<stop  offset="0" style="stop-color:#000000"/>
		<stop  offset="1" style="stop-color:#000000;stop-opacity:0"/>
	</radialGradient>
	<path id="path5058-7-9-1-3-0-3-4-8" opacity="0.3" fill="url(#path5058-7-9-1-3-0-3-4-8_1_)" enable-background="new    " d="
		M43.166,41v6C44.752,47.012,47,45.656,47,44S45.23,41,43.166,41z"/>
	
		<radialGradient id="path5018-8-1-1-6-9-4-9-7_1_" cx="-8821.8066" cy="-15117.3174" r="117.143" gradientTransform="matrix(-0.0308 0 0 -0.0247 -266.8913 -329.5221)" gradientUnits="userSpaceOnUse">
		<stop  offset="0" style="stop-color:#000000"/>
		<stop  offset="1" style="stop-color:#000000;stop-opacity:0"/>
	</radialGradient>
	<path id="path5018-8-1-1-6-9-4-9-7" opacity="0.3" fill="url(#path5018-8-1-1-6-9-4-9-7_1_)" enable-background="new    " d="
		M4.833,41v6C3.248,47.012,1,45.656,1,44S2.77,41,4.833,41z"/>
	
		<linearGradient id="path3388-1-43-0-7-6-2-7-8_1_" gradientUnits="userSpaceOnUse" x1="32.3594" y1="67.7803" x2="32.3594" y2="41.1364" gradientTransform="matrix(1 0 0 -1.0357 -8.3599 86.3408)">
		<stop  offset="0" style="stop-color:#9DC370"/>
		<stop  offset="1" style="stop-color:#6DAD39"/>
	</linearGradient>
	<path id="path3388-1-43-0-7-6-2-7-8" fill="url(#path3388-1-43-0-7-6-2-7-8_1_)" d="M2.163,15.5c-1.072,0.128-0.5,1.454-0.585,2.2
		c0.125,0.482,0.927,26.177,0.927,26.177c0,0.74,0.352,0.615,1.243,0.615c13.188,0,27.772,0,40.961,0
		c0.96,0.023,0.758,0.012,0.758-0.627c0,0,0.992-27.355,1.027-27.782c0-0.449,0.09-0.583-0.473-0.583
		C31.938,15.5,16.247,15.5,2.163,15.5z"/>
	
		<linearGradient id="path6127-7-1-6-4-8-5-0-8_1_" gradientUnits="userSpaceOnUse" x1="-2.9434" y1="21.6006" x2="-3.0687" y2="34.5719" gradientTransform="matrix(1.1447 0 0 -0.9978 27.747 72.154)">
		<stop  offset="0" style="stop-color:#0A0A0A;stop-opacity:0.498"/>
		<stop  offset="1" style="stop-color:#0A0A0A;stop-opacity:0"/>
	</linearGradient>
	<path id="path6127-7-1-6-4-8-5-0-8" opacity="0.4" fill="url(#path6127-7-1-6-4-8-5-0-8_1_)" enable-background="new    " d="
		M2.058,16.065l43.897,0c0.634,0,1.045,0.445,1.045,0.998l-1.033,26.96c0.016,0.699-0.209,0.977-0.945,0.962L3.241,44.968
		c-0.634,0-1.273-0.413-1.273-0.966L1.013,17.063C1.013,16.51,1.424,16.065,2.058,16.065z"/>
	
		<linearGradient id="path4587-4-6-3-0-1-2-6-8_1_" gradientUnits="userSpaceOnUse" x1="65.9004" y1="93.5449" x2="65.9004" y2="69.9161" gradientTransform="matrix(0.8919 0 0 -1.0987 -34.8074 119.795)">
		<stop  offset="0" style="stop-color:#FFFFFF"/>
		<stop  offset="0.0097" style="stop-color:#FFFFFF;stop-opacity:0.2353"/>
		<stop  offset="0.99" style="stop-color:#FFFFFF;stop-opacity:0.1569"/>
		<stop  offset="1" style="stop-color:#FFFFFF;stop-opacity:0.3922"/>
	</linearGradient>
	
		<path id="path4587-4-6-3-0-1-2-6-8" opacity="0.5" fill="none" stroke="url(#path4587-4-6-3-0-1-2-6-8_1_)" stroke-width="0.9813" stroke-linecap="round" enable-background="new    " d="
		M2.5,16.501c0.017,0.183,0.022,0.538,0.031,0.909c0.023,0.09,0.025,0.062,0.031,0.098c0.011,0.069,0.027,0.144,0.031,0.194
		c0.006,0.078-0.007,0.18,0,0.292c0.013,0.225,0.045,0.531,0.063,0.909c0.034,0.756,0.078,1.774,0.125,3.018
		c0.094,2.486,0.203,5.769,0.313,9.021C3.306,37.25,3.488,43.13,3.5,43.5c0.123,0.004,0.071,0,0.25,0h40.719
		c0.012-0.342,0.254-6.674,0.5-13.402c0.127-3.453,0.246-6.941,0.344-9.572c0.049-1.315,0.094-2.421,0.125-3.212
		c0.014-0.341,0.022-0.595,0.031-0.812H2.5z"/>
	<path id="rect6430-3" opacity="0.3" fill="#FFFFFF" enable-background="new    " d="M24.938,23
		c-0.064,0.008-0.127,0.028-0.188,0.063L19.688,26h3.969l0.813-0.469L24.75,26h2.281l-1.594-2.75
		C25.334,23.07,25.131,22.976,24.938,23z M18,26.969l-2.75,1.594c-0.24,0.139-0.326,0.447-0.188,0.688L18,34.313v-3.969
		l-0.469-0.813L18,29.25V26.969z M19.5,27c-0.277,0-0.5,0.223-0.5,0.5v11c0,0.277,0.223,0.5,0.5,0.5h11c0.277,0,0.5-0.223,0.5-0.5
		v-11c0-0.277-0.223-0.5-0.5-0.5H19.5z M21,29h8v7h-8V29z"/>
	<path id="rect6430" fill="#30542B" fill-opacity="0.5522" d="M24.938,22c-0.064,0.008-0.127,0.028-0.188,0.063L19.688,25h3.969
		l0.813-0.469L24.75,25h2.281l-1.594-2.75C25.334,22.07,25.131,21.976,24.938,22z M18,25.969l-2.75,1.594
		c-0.24,0.139-0.326,0.447-0.188,0.688L18,33.313v-3.969l-0.469-0.813L18,28.25V25.969z M19.5,26c-0.277,0-0.5,0.223-0.5,0.5v11
		c0,0.277,0.223,0.5,0.5,0.5h11c0.277,0,0.5-0.223,0.5-0.5v-11c0-0.277-0.223-0.5-0.5-0.5H19.5z M21,28h8v7h-8V28z"/>
	
		<path id="path3388-1-43-0-7-6-2-7-8-8" opacity="0.3" fill="none" stroke="#000000" stroke-linecap="round" stroke-linejoin="round" enable-background="new    " d="
		M2.163,15.5c-1.072,0.128-0.5,1.454-0.585,2.2c0.125,0.482,0.927,26.177,0.927,26.177c0,0.74,0.352,0.615,1.243,0.615
		c13.188,0,27.772,0,40.961,0c0.96,0.023,0.758,0.012,0.758-0.627c0,0,0.992-27.355,1.027-27.782c0-0.449,0.09-0.583-0.473-0.583
		C31.938,15.5,16.247,15.5,2.163,15.5z"/>
</g>
</svg>
