<?xml version="1.0" encoding="utf-8"?>
<!-- Generator: Adobe Illustrator 16.0.0, SVG Export Plug-In . SVG Version: 6.00 Build 0)  -->
<!DOCTYPE svg PUBLIC "-//W3C//DTD SVG 1.1//EN" "http://www.w3.org/Graphics/SVG/1.1/DTD/svg11.dtd">
<svg version="1.1"
	 id="svg22774" xmlns:dc="http://purl.org/dc/elements/1.1/" xmlns:rdf="http://www.w3.org/1999/02/22-rdf-syntax-ns#" xmlns:svg="http://www.w3.org/2000/svg" xmlns:cc="http://creativecommons.org/ns#"
	 xmlns="http://www.w3.org/2000/svg" xmlns:xlink="http://www.w3.org/1999/xlink" x="0px" y="0px" width="64px" height="64px"
	 viewBox="0 0 64 64" enable-background="new 0 0 64 64" xml:space="preserve">
<g id="layer1_1_" transform="translate(0,64)">
	
		<linearGradient id="rect8678-4_1_" gradientUnits="userSpaceOnUse" x1="-118.1416" y1="221.2939" x2="-118.1416" y2="219.8403" gradientTransform="matrix(2.7209 0 0 -2.6723 353.4545 544.3239)">
		<stop  offset="0" style="stop-color:#F9F9F9"/>
		<stop  offset="1" style="stop-color:#C9C9C9"/>
	</linearGradient>
	<path id="rect8678-4" fill="url(#rect8678-4_1_)" d="M6.5-54.234c-0.554,0-1,0.446-1,1v2.984H4c-0.554,0-1,0.446-1,1v5.5
		c0,0.554,0.446,1,1,1h56c0.555,0,1-0.446,1-1v-5.5c0-0.554-0.445-1-1-1H28.5v-2.984c0-0.554-0.446-1-1-1H6.5z"/>
	
		<linearGradient id="path3468_1_" gradientUnits="userSpaceOnUse" x1="-198.0737" y1="174.4082" x2="-198.0737" y2="200.6135" gradientTransform="matrix(2.1684 0 0 -2.2465 461.4934 386.7462)">
		<stop  offset="0" style="stop-color:#000000;stop-opacity:0.3217"/>
		<stop  offset="1" style="stop-color:#000000;stop-opacity:0.2783"/>
	</linearGradient>
	<path id="path3468" opacity="0.8" fill="none" stroke="url(#path3468_1_)" enable-background="new    " d="M6.832-54.5
		c-0.938,0.01-1.581,0.457-1.581,1.336v2.664c-0.48,0-0.738-0.001-1.052,0c-0.84,0.004-1.439,0.472-1.439,1.417
		C2.806-35.335,2.75-34.623,2.75-33.455c1.953,0,58.5-4.943,58.5-7.071v-8.571c0-0.879-0.578-1.413-1.518-1.402H28.75v-2.6
		c0-0.879-0.594-1.4-1.474-1.4H6.832L6.832-54.5z"/>
	
		<linearGradient id="rect8678_1_" gradientUnits="userSpaceOnUse" x1="-105.1353" y1="222.8896" x2="-105.1353" y2="203.3351" gradientTransform="matrix(2.6658 0 0 -2.6469 312.2742 535.2494)">
		<stop  offset="0" style="stop-color:#FFFFFF"/>
		<stop  offset="0.1088" style="stop-color:#FFFFFF;stop-opacity:0.2353"/>
		<stop  offset="0.9791" style="stop-color:#FFFFFF;stop-opacity:0.1569"/>
		<stop  offset="1" style="stop-color:#FFFFFF;stop-opacity:0.3922"/>
	</linearGradient>
	<path id="rect8678" fill="none" stroke="url(#rect8678_1_)" stroke-width="1" stroke-linecap="round" stroke-linejoin="round" d="
		M6.75-54c-0.554,0-1,0.446-1,1v3h-1.5c-0.554,0-1,0.446-1,1v5.5c0,0.554,0.446,1,1,1h55.5c0.555,0,1-0.446,1-1V-49
		c0-0.554-0.445-1-1-1h-31.5v-3c0-0.554-0.446-1-1-1H6.75z"/>
	<g id="g2479" transform="matrix(1.0027339,0,0,0.9919518,-0.16331336,-57.066403)">
		
			<linearGradient id="rect4173_1_" gradientUnits="userSpaceOnUse" x1="1213.2614" y1="-4684.354" x2="1213.2614" y2="-4805.7822" gradientTransform="matrix(0.214 0 0 -0.0659 -227.5664 -262.9319)">
			<stop  offset="0" style="stop-color:#000000;stop-opacity:0"/>
			<stop  offset="0.5" style="stop-color:#000000"/>
			<stop  offset="1" style="stop-color:#000000;stop-opacity:0"/>
		</linearGradient>
		
			<rect id="rect4173" x="6.314" y="45.684" opacity="0.3" fill="url(#rect4173_1_)" enable-background="new    " width="51.526" height="8.065"/>
		
			<radialGradient id="path5058_1_" cx="2921.2236" cy="-4744.8315" r="58.569" gradientTransform="matrix(0.083 0 0 -0.0659 -184.4999 -262.9319)" gradientUnits="userSpaceOnUse">
			<stop  offset="0" style="stop-color:#000000"/>
			<stop  offset="1" style="stop-color:#000000;stop-opacity:0"/>
		</radialGradient>
		<path id="path5058" opacity="0.3" fill="url(#path5058_1_)" enable-background="new    " d="M57.839,45.684v8.065
			c2.131,0.015,5.152-1.808,5.152-4.033S60.613,45.684,57.839,45.684z"/>
		
			<radialGradient id="path5018_1_" cx="-2882.1113" cy="-4744.8315" r="58.5745" gradientTransform="matrix(-0.083 0 0 -0.0659 -233.0322 -262.9319)" gradientUnits="userSpaceOnUse">
			<stop  offset="0" style="stop-color:#000000"/>
			<stop  offset="1" style="stop-color:#000000;stop-opacity:0"/>
		</radialGradient>
		<path id="path5018" opacity="0.3" fill="url(#path5018_1_)" enable-background="new    " d="M6.314,45.684v8.065
			c-2.132,0.015-5.153-1.808-5.153-4.033S3.539,45.684,6.314,45.684z"/>
	</g>
	<linearGradient id="path3369_1_" gradientUnits="userSpaceOnUse" x1="32" y1="-43.5732" x2="32" y2="-7.2583">
		<stop  offset="0" style="stop-color:#A3CB72"/>
		<stop  offset="1" style="stop-color:#6FB737"/>
	</linearGradient>
	<path id="path3369" fill="url(#path3369_1_)" d="M3.125-45l57.75,0.001c0.834,0,1.375,0.592,1.375,1.327L60.893-7.781
		c0.02,0.931-0.275,1.3-1.244,1.28L4.681-6.524c-0.834,0-1.676-0.55-1.676-1.285L1.75-43.672C1.75-44.407,2.292-45,3.125-45z"/>
	
		<linearGradient id="path6127_1_" gradientUnits="userSpaceOnUse" x1="-169.9746" y1="204.6299" x2="-169.9746" y2="211.1448" gradientTransform="matrix(3.0368 0 0 -2.691 548.1791 551.9942)">
		<stop  offset="0" style="stop-color:#0A0A0A;stop-opacity:0.498"/>
		<stop  offset="1" style="stop-color:#0A0A0A;stop-opacity:0"/>
	</linearGradient>
	<path id="path6127" opacity="0.4" fill="url(#path6127_1_)" enable-background="new    " d="M2.887-45.25l58.226,0.001
		c0.842,0,1.387,0.6,1.387,1.345L61.131-7.548c0.02,0.942-0.277,1.316-1.254,1.297L4.456-6.274c-0.841,0-1.689-0.557-1.689-1.302
		L1.5-43.904C1.5-44.649,2.045-45.25,2.887-45.25z"/>
	
		<linearGradient id="path8263_1_" gradientUnits="userSpaceOnUse" x1="-105.1392" y1="221.7949" x2="-105.1392" y2="207.6689" gradientTransform="matrix(2.6658 0 0 -2.7171 312.2742 557.6848)">
		<stop  offset="0" style="stop-color:#FFFFFF"/>
		<stop  offset="0.0221" style="stop-color:#FFFFFF;stop-opacity:0.2353"/>
		<stop  offset="0.9791" style="stop-color:#FFFFFF;stop-opacity:0.1569"/>
		<stop  offset="1" style="stop-color:#FFFFFF;stop-opacity:0.3922"/>
	</linearGradient>
	
		<path id="path8263" opacity="0.5" fill="none" stroke="url(#path8263_1_)" stroke-width="1" stroke-linecap="round" stroke-linejoin="round" enable-background="new    " d="
		M3.125-44.5c-1.425,0.148-0.704,1.884-0.82,2.86c0.394,11.273,0.788,22.548,1.18,33.821C4.08-6.573,5.7-7.177,6.804-7.031
		C24.421-7.021,42.039-7.011,59.656-7c1.283-0.083,0.58-1.909,0.828-2.828c0.426-11.284,1.271-33.785,1.271-33.785
		c0-0.581-0.391-0.887-1.104-0.887C42.107-44.5,21.67-44.5,3.125-44.5L3.125-44.5z"/>
	
		<path id="path3369-7" opacity="0.3" fill="none" stroke="#000000" stroke-width="1" stroke-linecap="round" stroke-linejoin="round" enable-background="new    " d="
		M3.125-45l57.75,0.001c0.834,0,1.375,0.592,1.375,1.327L60.893-7.781c0.02,0.931-0.275,1.3-1.244,1.28L4.681-6.524
		c-0.834,0-1.676-0.55-1.676-1.285L1.75-43.672C1.75-44.407,2.292-45,3.125-45z"/>
</g>
</svg>
