<?xml version="1.0" encoding="utf-8"?>
<!-- Generator: Adobe Illustrator 16.0.0, SVG Export Plug-In . SVG Version: 6.00 Build 0)  -->
<!DOCTYPE svg PUBLIC "-//W3C//DTD SVG 1.1//EN" "http://www.w3.org/Graphics/SVG/1.1/DTD/svg11.dtd">
<svg version="1.1"
	 id="svg25818" xmlns:dc="http://purl.org/dc/elements/1.1/" xmlns:rdf="http://www.w3.org/1999/02/22-rdf-syntax-ns#" xmlns:svg="http://www.w3.org/2000/svg" xmlns:cc="http://creativecommons.org/ns#"
	 xmlns="http://www.w3.org/2000/svg" xmlns:xlink="http://www.w3.org/1999/xlink" x="0px" y="0px" width="64px" height="64px"
	 viewBox="0 0 64 64" enable-background="new 0 0 64 64" xml:space="preserve">
<filter  id="filter7554-3" color-interpolation-filters="sRGB">
	<feBlend  mode="darken" in2="BackgroundImage" id="feBlend7556-3"></feBlend>
</filter>
<g id="layer1">
	
		<linearGradient id="use6315_1_" gradientUnits="userSpaceOnUse" x1="9.5894" y1="155.9053" x2="9.5894" y2="152.998" gradientTransform="matrix(1.3136 0 0 -1.2901 19.4033 218.084)">
		<stop  offset="0" style="stop-color:#F9F9F9"/>
		<stop  offset="1" style="stop-color:#C9C9C9"/>
	</linearGradient>
	<path id="use6315" fill="url(#use6315_1_)" d="M7.5,10C7.224,10,7,10.223,7,10.5V14H4.5C4.224,14,4,14.223,4,14.5V24
		c0,0.277,0.223,0.5,0.5,0.5h55c0.277,0,0.5-0.223,0.5-0.5v-9.5c0-0.277-0.223-0.5-0.5-0.5H28v-3.5c0-0.277-0.223-0.5-0.5-0.5H7.5z"
		/>
	
		<linearGradient id="use6317_1_" gradientUnits="userSpaceOnUse" x1="-42.2036" y1="60.6133" x2="-42.2036" y2="110.4939" gradientTransform="matrix(1.0564 0 0 -1.0771 76.5838 120.3929)">
		<stop  offset="0" style="stop-color:#000000;stop-opacity:0.3217"/>
		<stop  offset="1" style="stop-color:#000000;stop-opacity:0.2783"/>
	</linearGradient>
	<path id="use6317" opacity="0.8" fill="none" stroke="url(#use6317_1_)" enable-background="new    " d="M8,9.5
		c-0.915,0.01-1.5,0.457-1.5,1.333V13.5H4.995C4,13.5,3.5,13.974,3.5,14.842c0.046,13.719,0,14.493,0,15.658
		c1.903,0,57-4.933,57-7.056V15c0-1-0.5-1.5-1.5-1.5H28.5v-2.667c0-0.877-0.224-1.344-1.139-1.333H8z"/>
	
		<linearGradient id="use6319_1_" gradientUnits="userSpaceOnUse" x1="27.0713" y1="144.5449" x2="27.0713" y2="109.0946" gradientTransform="matrix(1.275 0 0 -1.2183 -2.5146 186.493)">
		<stop  offset="0" style="stop-color:#FFFFFF"/>
		<stop  offset="0.1088" style="stop-color:#FFFFFF;stop-opacity:0.2353"/>
		<stop  offset="0.9791" style="stop-color:#FFFFFF;stop-opacity:0.1569"/>
		<stop  offset="1" style="stop-color:#FFFFFF;stop-opacity:0.3922"/>
	</linearGradient>
	<path id="use6319" fill="none" stroke="url(#use6319_1_)" stroke-width="1" stroke-linecap="round" stroke-linejoin="round" d="
		M7.5,10.5v4h-3v10h55v-10h-32v-4H7.5z"/>
	
		<radialGradient id="use6321_1_" cx="7159.0908" cy="-11097.1875" r="117.1424" gradientTransform="matrix(0.0402 0 0 -0.0329 -229.4001 -308.6174)" gradientUnits="userSpaceOnUse">
		<stop  offset="0" style="stop-color:#000000"/>
		<stop  offset="1" style="stop-color:#000000;stop-opacity:0"/>
	</radialGradient>
	<path id="use6321" opacity="0.3" fill="url(#use6321_1_)" enable-background="new    " d="M58,53v8c2.068,0.016,5-1.793,5-4
		C63,54.791,60.693,53,58,53z"/>
	
		<linearGradient id="use6323_1_" gradientUnits="userSpaceOnUse" x1="2638.9102" y1="-10977.6621" x2="2638.9102" y2="-11220.5195" gradientTransform="matrix(0.1077 0 0 -0.0329 -252.1899 -308.6169)">
		<stop  offset="0" style="stop-color:#000000;stop-opacity:0"/>
		<stop  offset="0.5" style="stop-color:#000000"/>
		<stop  offset="1" style="stop-color:#000000;stop-opacity:0"/>
	</linearGradient>
	<rect id="use6323" x="6" y="53" opacity="0.3" fill="url(#use6323_1_)" enable-background="new    " width="52" height="8"/>
	
		<radialGradient id="use6325_1_" cx="-6478.6748" cy="-11097.1875" r="117.1427" gradientTransform="matrix(-0.0402 0 0 -0.0329 -254.3186 -308.6174)" gradientUnits="userSpaceOnUse">
		<stop  offset="0" style="stop-color:#000000"/>
		<stop  offset="1" style="stop-color:#000000;stop-opacity:0"/>
	</radialGradient>
	<path id="use6325" opacity="0.3" fill="url(#use6325_1_)" enable-background="new    " d="M6,53v8c-2.068,0.016-5-1.793-5-4
		C1,54.791,3.309,53,6,53z"/>
	
		<linearGradient id="use6327_1_" gradientUnits="userSpaceOnUse" x1="194.7305" y1="-330.2397" x2="194.7305" y2="-405.3002" gradientTransform="matrix(0.5041 0 0 -0.4933 -66.169 -142.6647)">
		<stop  offset="0" style="stop-color:#9DC370"/>
		<stop  offset="1" style="stop-color:#6DAD39"/>
	</linearGradient>
	<path id="use6327" fill="url(#use6327_1_)" d="M2.504,20.532c-1.44,0.163-0.872,1.853-0.986,2.803
		c0.527,11.193,1.26,21.81,1.783,33.002c0,1.19,1.195,1.137,1.865,1.137c0,0,36.775,0,54.491,0c1.463-0.142,0.854-1.86,1.061-2.845
		c0.526-11.192,1.26-21.568,1.784-32.762c0.018-0.752-0.502-1.335-1.216-1.335C61.286,20.532,21.423,20.532,2.504,20.532z"/>
	
		<linearGradient id="use6329_1_" gradientUnits="userSpaceOnUse" x1="-63.7246" y1="124.7549" x2="-63.8499" y2="137.7266" gradientTransform="matrix(1.5433 0 0 -1.3103 130.846 228.8304)">
		<stop  offset="0" style="stop-color:#0A0A0A;stop-opacity:0.498"/>
		<stop  offset="1" style="stop-color:#0A0A0A;stop-opacity:0"/>
	</linearGradient>
	<path id="use6329" opacity="0.4" fill="url(#use6329_1_)" enable-background="new    " d="M2.41,20l59.182,0
		C62.447,20,63,20.584,63,21.311l-1.677,35.379c0,0.727-0.688,1.311-1.544,1.311H4.221c-0.854,0-1.543-0.584-1.543-1.311L1,21.311
		C1,20.584,1.555,20,2.41,20z"/>
	
		<linearGradient id="use6331_1_" gradientUnits="userSpaceOnUse" x1="19.5669" y1="148.1162" x2="19.5669" y2="120.8176" gradientTransform="matrix(1.321 0 0 -1.268 6.1428 209.4886)">
		<stop  offset="0" style="stop-color:#FFFFFF"/>
		<stop  offset="0.0221" style="stop-color:#FFFFFF;stop-opacity:0.2353"/>
		<stop  offset="0.9791" style="stop-color:#FFFFFF;stop-opacity:0.1569"/>
		<stop  offset="1" style="stop-color:#FFFFFF;stop-opacity:0.3922"/>
	</linearGradient>
	
		<path id="use6331" opacity="0.5" fill="none" stroke="url(#use6331_1_)" stroke-width="1" stroke-linecap="round" stroke-linejoin="round" enable-background="new    " d="
		M61.069,21.5L3.951,21.531c-1.709,0-1.434,0.034-1.434,1.076l1.621,32.914C4.154,56.464,4.072,56.5,5.211,56.5
		c0,0,36.777,0,54.439,0c0.54-11.582,1.258-22.682,1.814-34.322C61.518,21.623,61.479,21.5,61.069,21.5z"/>
	
		<path id="use6327-4" opacity="0.3" fill="none" stroke="#000000" stroke-width="1" stroke-linecap="round" stroke-linejoin="round" enable-background="new    " d="
		M2.504,20.532c-1.44,0.163-0.872,1.853-0.986,2.803c0.527,11.193,1.26,21.81,1.783,33.002c0,1.19,1.195,1.137,1.865,1.137
		c0,0,36.775,0,54.491,0c1.463-0.142,0.854-1.86,1.061-2.845c0.526-11.192,1.26-21.568,1.784-32.762
		c0.018-0.752-0.502-1.335-1.216-1.335C61.286,20.532,21.423,20.532,2.504,20.532z"/>
	<g id="layer9" transform="matrix(1.3803922,0,0,1.3803922,-1002.6764,297.09283)">
	</g>
	<g id="layer10" transform="matrix(1.3803922,0,0,1.3803922,-1002.6764,297.09283)" filter="url(#filter7554-3)">
	</g>
	<g id="layer1-0" transform="matrix(1.3803922,0,0,1.3803922,-670.00164,-554.60916)">
	</g>
	<g id="layer14" transform="matrix(1.3803922,0,0,1.3803922,-1002.6764,297.09283)">
	</g>
	<g id="g24872-6-2" transform="matrix(1.3803922,0,0,1.3803922,-457.68607,-1301.5635)">
	</g>
	<path id="path18808" opacity="0.3" fill="#FFFFFF" enable-background="new    " d="M38,29c-2.209,0-4,1.791-4,4
		c0,0.301,0.063,0.594,0.125,0.875l-5.438,3.156C27.978,36.391,27.032,36,26,36c-2.209,0-4,1.791-4,4s1.791,4,4,4
		c1.032,0,1.978-0.391,2.688-1.031l5.438,3.156C34.063,46.406,34,46.699,34,47c0,2.209,1.791,4,4,4s4-1.791,4-4s-1.791-4-4-4
		c-1,0-1.924,0.363-2.625,0.969l-5.469-3.156C29.959,40.553,30,40.276,30,40s-0.041-0.553-0.094-0.813l5.469-3.156
		C36.076,36.637,37,37,38,37c2.209,0,4-1.791,4-4S40.209,29,38,29z"/>
	<g id="g71291" transform="matrix(1.3803922,0,0,1.3803922,-1002.6764,297.09283)">
	</g>
	<g id="layer2" transform="matrix(1.3803922,0,0,1.3803922,-670.00164,-347.55033)">
	</g>
	<g id="g6058" transform="matrix(1.3803922,0,0,1.3803922,-670.00164,-347.55033)">
	</g>
	<g id="layer12" transform="matrix(1.3803922,0,0,1.3803922,-1002.6764,297.09283)">
	</g>
	<path id="path18808-8" fill="#30542B" fill-opacity="0.5522" d="M38,28c-2.209,0-4,1.791-4,4c0,0.3,0.063,0.594,0.125,0.875
		l-5.438,3.156C27.978,35.391,27.032,35,26,35c-2.209,0-4,1.791-4,4s1.791,4,4,4c1.032,0,1.978-0.391,2.688-1.031l5.438,3.156
		C34.063,45.406,34,45.699,34,46c0,2.209,1.791,4,4,4s4-1.791,4-4s-1.791-4-4-4c-1,0-1.924,0.363-2.625,0.969l-5.469-3.156
		C29.959,39.553,30,39.276,30,39s-0.041-0.553-0.094-0.813l5.469-3.156C36.076,35.637,37,36,38,36c2.209,0,4-1.791,4-4
		S40.209,28,38,28z"/>
</g>
</svg>
